<svg xmlns="http://www.w3.org/2000/svg" viewBox="0 0 1270 760" width="1270" height="760">
<defs>
  <radialGradient id="warmwash" cx="20%" cy="0%" r="80%">
    <stop offset="0%" stop-color="#FFD9C9" stop-opacity="0.45"/>
    <stop offset="60%" stop-color="#FCF7ED" stop-opacity="0"/>
  </radialGradient>
  <linearGradient id="phoneShadow" x1="0" y1="0" x2="0" y2="1">
    <stop offset="0%" stop-color="#000" stop-opacity="0.06"/>
    <stop offset="100%" stop-color="#000" stop-opacity="0.18"/>
  </linearGradient>
</defs>
<rect width="1270" height="760" fill="#FCF7ED"/>
<rect width="1270" height="760" fill="url(#warmwash)"/>
<text x="635.0" y="110" font-family='-apple-system, "SF Pro Display", "Helvetica Neue", system-ui, sans-serif' font-size="64" font-weight="500" fill="#1A1714" text-anchor="middle" >tap to talk.</text>

    <rect x="463.0" y="108" width="344" height="684" rx="100" ry="100" fill="url(#phoneShadow)" filter="blur(28px)"/>
    <rect x="475.0" y="120" width="320" height="660" rx="90" ry="90" fill="#1A1714"/>
    <rect x="485.0" y="130" width="300" height="640" rx="80" ry="80" fill="#FCF7ED"/>
    <clipPath id="screenClip-475.0-120"><rect x="485.0" y="130" width="300" height="640" rx="80" ry="80"/></clipPath>
    <g clip-path="url(#screenClip-475.0-120)"><circle cx="635.0" cy="330.0" r="280" fill="#29B86B" opacity="0.06"/>
<circle cx="635.0" cy="330.0" r="210" fill="#29B86B" opacity="0.1"/>
<circle cx="635.0" cy="330.0" r="160" fill="#29B86B" opacity="0.16"/>
<circle cx="635.0" cy="330.0" r="115" fill="#29B86B"/>
<text x="635.0" y="352.0" font-family='-apple-system, "SF Pro Display", "Helvetica Neue", system-ui, sans-serif' font-size="70" font-weight="400" fill="#1A1714" text-anchor="middle" >🎙</text>
<rect x="352.0" y="545.6319360609185" width="14" height="88.73612787816295" rx="6" fill="#29B86B" opacity="0.6"/><rect x="376.0" y="532.8525000865545" width="14" height="114.294999826891" rx="6" fill="#29B86B" opacity="0.6799999999999999"/><rect x="400.0" y="530.0" width="14" height="120" rx="6" fill="#29B86B" opacity="0.76"/><rect x="424.0" y="530.0" width="14" height="120" rx="6" fill="#29B86B" opacity="0.84"/><rect x="448.0" y="539.7110085309951" width="14" height="100.57798293800982" rx="6" fill="#29B86B" opacity="0.92"/><rect x="472.0" y="554.185896659438" width="14" height="71.62820668112406" rx="6" fill="#29B86B" opacity="0.6"/><rect x="496.0" y="567.2515109295393" width="14" height="45.496978140921335" rx="6" fill="#29B86B" opacity="0.6799999999999999"/><rect x="520.0" y="574.0442667560926" width="14" height="31.911466487814742" rx="6" fill="#29B86B" opacity="0.76"/><rect x="544.0" y="572.0356077431925" width="14" height="35.92878451361497" rx="6" fill="#29B86B" opacity="0.84"/><rect x="568.0" y="561.9732433218784" width="14" height="56.053513356243286" rx="6" fill="#29B86B" opacity="0.92"/><rect x="592.0" y="547.6028190835882" width="14" height="84.7943618328237" rx="6" fill="#29B86B" opacity="0.6"/><rect x="616.0" y="534.2736261036113" width="14" height="111.45274779277737" rx="6" fill="#29B86B" opacity="0.6799999999999999"/><rect x="640.0" y="530.0" width="14" height="120" rx="6" fill="#29B86B" opacity="0.76"/><rect x="664.0" y="530.0" width="14" height="120" rx="6" fill="#29B86B" opacity="0.84"/><rect x="688.0" y="537.9625230578965" width="14" height="104.07495388420689" rx="6" fill="#29B86B" opacity="0.92"/><rect x="712.0" y="552.2036268910834" width="14" height="75.59274621783314" rx="6" fill="#29B86B" opacity="0.6"/><rect x="736.0" y="565.7733430831235" width="14" height="48.45331383375309" rx="6" fill="#29B86B" opacity="0.6799999999999999"/><rect x="760.0" y="573.6204385933889" width="14" height="32.759122813222206" rx="6" fill="#29B86B" opacity="0.76"/><rect x="784.0" y="572.8238863677055" width="14" height="34.3522272645889" rx="6" fill="#29B86B" opacity="0.84"/><rect x="808.0" y="563.6801974652595" width="14" height="52.639605069480865" rx="6" fill="#29B86B" opacity="0.92"/><rect x="832.0" y="549.5930468666927" width="14" height="80.81390626661457" rx="6" fill="#29B86B" opacity="0.6"/><rect x="856.0" y="535.8062789932702" width="14" height="108.38744201345956" rx="6" fill="#29B86B" opacity="0.6799999999999999"/><rect x="880.0" y="530.0" width="14" height="120" rx="6" fill="#29B86B" opacity="0.76"/><rect x="904.0" y="530.0" width="14" height="120" rx="6" fill="#29B86B" opacity="0.84"/>
<text x="635.0" y="770.0" font-family='-apple-system, "SF Pro Display", "Helvetica Neue", system-ui, sans-serif' font-size="28" font-weight="400" fill="#5C4D43" text-anchor="middle" letter-spacing="10">TAP TO SEND</text>
<circle cx="635.0" cy="600" r="60" fill="#FB6E5C"/>
<text x="635.0" y="612" font-family='-apple-system, "SF Pro Display", "Helvetica Neue", system-ui, sans-serif' font-size="44" font-weight="400" fill="#FFFFFF" text-anchor="middle" >✕</text></g>
    
</svg>