<svg xmlns="http://www.w3.org/2000/svg" viewBox="0 0 1290 2796" width="1290" height="2796">
<defs>
  <radialGradient id="warmwash" cx="20%" cy="0%" r="80%">
    <stop offset="0%" stop-color="#FFD9C9" stop-opacity="0.45"/>
    <stop offset="60%" stop-color="#FCF7ED" stop-opacity="0"/>
  </radialGradient>
  <linearGradient id="phoneShadow" x1="0" y1="0" x2="0" y2="1">
    <stop offset="0%" stop-color="#000" stop-opacity="0.06"/>
    <stop offset="100%" stop-color="#000" stop-opacity="0.18"/>
  </linearGradient>
</defs>
<rect width="1290" height="2796" fill="#FCF7ED"/>
<rect width="1290" height="2796" fill="url(#warmwash)"/>
<text x="645.0" y="240" font-family='-apple-system, "SF Pro Display", "Helvetica Neue", system-ui, sans-serif' font-size="132" font-weight="500" fill="#1A1714" text-anchor="middle" >voice messages.</text><text x="645.0" y="390" font-family='-apple-system, "SF Pro Display", "Helvetica Neue", system-ui, sans-serif' font-size="132" font-weight="500" fill="#FB6E5C" text-anchor="middle" >nothing else.</text><text x="645.0" y="566" font-family='-apple-system, "SF Pro Display", "Helvetica Neue", system-ui, sans-serif' font-size="42" font-weight="300" fill="#5C4D43" text-anchor="middle" >no typing. no scrolling. just talk.</text>
    <rect x="118" y="708" width="1054" height="1844" rx="100" ry="100" fill="url(#phoneShadow)" filter="blur(28px)"/>
    <rect x="130" y="720" width="1030" height="1820" rx="90" ry="90" fill="#1A1714"/>
    <rect x="140" y="730" width="1010" height="1800" rx="80" ry="80" fill="#FCF7ED"/>
    <clipPath id="screenClip-130-720"><rect x="140" y="730" width="1010" height="1800" rx="80" ry="80"/></clipPath>
    <g clip-path="url(#screenClip-130-720)"><rect x="485.0" y="1350.0" width="320" height="320" rx="80" fill="#FB6E5C"/>
<rect x="595.0" y="1410.0" width="100" height="160" rx="50" fill="#FFFFFF"/>
<rect x="642.0" y="1580.0" width="6" height="60" fill="#FFFFFF"/>
<rect x="595.0" y="1640.0" width="100" height="6" rx="3" fill="#FFFFFF"/>
<text x="645.0" y="1750.0" font-family='-apple-system, "SF Pro Display", "Helvetica Neue", system-ui, sans-serif' font-size="82" font-weight="300" fill="#1A1714" text-anchor="middle" letter-spacing="14">tones</text>
<text x="645.0" y="1800.0" font-family='-apple-system, "SF Pro Display", "Helvetica Neue", system-ui, sans-serif' font-size="28" font-weight="300" fill="#5C4D43" text-anchor="middle" >voice messages, nothing else.</text></g>
    
</svg>