<svg xmlns="http://www.w3.org/2000/svg" viewBox="0 0 1290 2796" width="1290" height="2796">
<defs>
  <radialGradient id="warmwash" cx="20%" cy="0%" r="80%">
    <stop offset="0%" stop-color="#FFD9C9" stop-opacity="0.45"/>
    <stop offset="60%" stop-color="#FCF7ED" stop-opacity="0"/>
  </radialGradient>
  <linearGradient id="phoneShadow" x1="0" y1="0" x2="0" y2="1">
    <stop offset="0%" stop-color="#000" stop-opacity="0.06"/>
    <stop offset="100%" stop-color="#000" stop-opacity="0.18"/>
  </linearGradient>
</defs>
<rect width="1290" height="2796" fill="#FCF7ED"/>
<rect width="1290" height="2796" fill="url(#warmwash)"/>
<text x="645.0" y="240" font-family='-apple-system, "SF Pro Display", "Helvetica Neue", system-ui, sans-serif' font-size="132" font-weight="500" fill="#1A1714" text-anchor="middle" >tap.</text><text x="645.0" y="390" font-family='-apple-system, "SF Pro Display", "Helvetica Neue", system-ui, sans-serif' font-size="132" font-weight="500" fill="#1A1714" text-anchor="middle" >talk.</text><text x="645.0" y="540" font-family='-apple-system, "SF Pro Display", "Helvetica Neue", system-ui, sans-serif' font-size="132" font-weight="500" fill="#FB6E5C" text-anchor="middle" >tone.</text><text x="645.0" y="716" font-family='-apple-system, "SF Pro Display", "Helvetica Neue", system-ui, sans-serif' font-size="42" font-weight="300" fill="#5C4D43" text-anchor="middle" >live waveform. instant send.</text>
    <rect x="118" y="708" width="1054" height="1844" rx="100" ry="100" fill="url(#phoneShadow)" filter="blur(28px)"/>
    <rect x="130" y="720" width="1030" height="1820" rx="90" ry="90" fill="#1A1714"/>
    <rect x="140" y="730" width="1010" height="1800" rx="80" ry="80" fill="#FCF7ED"/>
    <clipPath id="screenClip-130-720"><rect x="140" y="730" width="1010" height="1800" rx="80" ry="80"/></clipPath>
    <g clip-path="url(#screenClip-130-720)"><circle cx="645.0" cy="1510.0" r="280" fill="#29B86B" opacity="0.06"/>
<circle cx="645.0" cy="1510.0" r="210" fill="#29B86B" opacity="0.1"/>
<circle cx="645.0" cy="1510.0" r="160" fill="#29B86B" opacity="0.16"/>
<circle cx="645.0" cy="1510.0" r="115" fill="#29B86B"/>
<text x="645.0" y="1532.0" font-family='-apple-system, "SF Pro Display", "Helvetica Neue", system-ui, sans-serif' font-size="70" font-weight="400" fill="#1A1714" text-anchor="middle" >🎙</text>
<rect x="362.0" y="1725.6319360609186" width="14" height="88.73612787816295" rx="6" fill="#29B86B" opacity="0.6"/><rect x="386.0" y="1712.8525000865545" width="14" height="114.294999826891" rx="6" fill="#29B86B" opacity="0.6799999999999999"/><rect x="410.0" y="1710.0" width="14" height="120" rx="6" fill="#29B86B" opacity="0.76"/><rect x="434.0" y="1710.0" width="14" height="120" rx="6" fill="#29B86B" opacity="0.84"/><rect x="458.0" y="1719.711008530995" width="14" height="100.57798293800982" rx="6" fill="#29B86B" opacity="0.92"/><rect x="482.0" y="1734.185896659438" width="14" height="71.62820668112406" rx="6" fill="#29B86B" opacity="0.6"/><rect x="506.0" y="1747.2515109295393" width="14" height="45.496978140921335" rx="6" fill="#29B86B" opacity="0.6799999999999999"/><rect x="530.0" y="1754.0442667560926" width="14" height="31.911466487814742" rx="6" fill="#29B86B" opacity="0.76"/><rect x="554.0" y="1752.0356077431925" width="14" height="35.92878451361497" rx="6" fill="#29B86B" opacity="0.84"/><rect x="578.0" y="1741.9732433218783" width="14" height="56.053513356243286" rx="6" fill="#29B86B" opacity="0.92"/><rect x="602.0" y="1727.6028190835882" width="14" height="84.7943618328237" rx="6" fill="#29B86B" opacity="0.6"/><rect x="626.0" y="1714.2736261036114" width="14" height="111.45274779277737" rx="6" fill="#29B86B" opacity="0.6799999999999999"/><rect x="650.0" y="1710.0" width="14" height="120" rx="6" fill="#29B86B" opacity="0.76"/><rect x="674.0" y="1710.0" width="14" height="120" rx="6" fill="#29B86B" opacity="0.84"/><rect x="698.0" y="1717.9625230578965" width="14" height="104.07495388420689" rx="6" fill="#29B86B" opacity="0.92"/><rect x="722.0" y="1732.2036268910833" width="14" height="75.59274621783314" rx="6" fill="#29B86B" opacity="0.6"/><rect x="746.0" y="1745.7733430831236" width="14" height="48.45331383375309" rx="6" fill="#29B86B" opacity="0.6799999999999999"/><rect x="770.0" y="1753.6204385933888" width="14" height="32.759122813222206" rx="6" fill="#29B86B" opacity="0.76"/><rect x="794.0" y="1752.8238863677057" width="14" height="34.3522272645889" rx="6" fill="#29B86B" opacity="0.84"/><rect x="818.0" y="1743.6801974652597" width="14" height="52.639605069480865" rx="6" fill="#29B86B" opacity="0.92"/><rect x="842.0" y="1729.5930468666927" width="14" height="80.81390626661457" rx="6" fill="#29B86B" opacity="0.6"/><rect x="866.0" y="1715.8062789932703" width="14" height="108.38744201345956" rx="6" fill="#29B86B" opacity="0.6799999999999999"/><rect x="890.0" y="1710.0" width="14" height="120" rx="6" fill="#29B86B" opacity="0.76"/><rect x="914.0" y="1710.0" width="14" height="120" rx="6" fill="#29B86B" opacity="0.84"/>
<text x="645.0" y="1950.0" font-family='-apple-system, "SF Pro Display", "Helvetica Neue", system-ui, sans-serif' font-size="28" font-weight="400" fill="#5C4D43" text-anchor="middle" letter-spacing="10">TAP TO SEND</text>
<circle cx="645.0" cy="2360" r="60" fill="#FB6E5C"/>
<text x="645.0" y="2372" font-family='-apple-system, "SF Pro Display", "Helvetica Neue", system-ui, sans-serif' font-size="44" font-weight="400" fill="#FFFFFF" text-anchor="middle" >✕</text></g>
    
</svg>