<svg xmlns="http://www.w3.org/2000/svg" viewBox="0 0 1290 2796" width="1290" height="2796">
<defs>
  <radialGradient id="warmwash" cx="20%" cy="0%" r="80%">
    <stop offset="0%" stop-color="#FFD9C9" stop-opacity="0.45"/>
    <stop offset="60%" stop-color="#FCF7ED" stop-opacity="0"/>
  </radialGradient>
  <linearGradient id="phoneShadow" x1="0" y1="0" x2="0" y2="1">
    <stop offset="0%" stop-color="#000" stop-opacity="0.06"/>
    <stop offset="100%" stop-color="#000" stop-opacity="0.18"/>
  </linearGradient>
</defs>
<rect width="1290" height="2796" fill="#FCF7ED"/>
<rect width="1290" height="2796" fill="url(#warmwash)"/>
<text x="645.0" y="240" font-family='-apple-system, "SF Pro Display", "Helvetica Neue", system-ui, sans-serif' font-size="132" font-weight="500" fill="#1A1714" text-anchor="middle" >real conversations.</text><text x="645.0" y="416" font-family='-apple-system, "SF Pro Display", "Helvetica Neue", system-ui, sans-serif' font-size="42" font-weight="300" fill="#5C4D43" text-anchor="middle" >share a tone. start a thread.</text>
    <rect x="118" y="708" width="1054" height="1844" rx="100" ry="100" fill="url(#phoneShadow)" filter="blur(28px)"/>
    <rect x="130" y="720" width="1030" height="1820" rx="90" ry="90" fill="#1A1714"/>
    <rect x="140" y="730" width="1010" height="1800" rx="80" ry="80" fill="#FCF7ED"/>
    <clipPath id="screenClip-130-720"><rect x="140" y="730" width="1010" height="1800" rx="80" ry="80"/></clipPath>
    <g clip-path="url(#screenClip-130-720)"><text x="645.0" y="820" font-family='-apple-system, "SF Pro Display", "Helvetica Neue", system-ui, sans-serif' font-size="34" font-weight="400" fill="#1A1714" text-anchor="middle" >@alex</text>
<rect x="220" y="900" width="430" height="120" rx="40" fill="#FFFFFF"/>
<circle cx="282" cy="960" r="30" fill="#FFD9C9"/><text x="282" y="969.6" font-family='-apple-system, "SF Pro Display", "Helvetica Neue", system-ui, sans-serif' font-size="36" font-weight="500" fill="#1A1714" text-anchor="middle" >M</text>
<rect x="328" y="958" width="240" height="3" rx="2" fill="#FFD9C9"/>
<rect x="328" y="958" width="80" height="3" rx="2" fill="#29B86B"/>
<text x="328" y="992" font-family='-apple-system, "SF Pro Display", "Helvetica Neue", system-ui, sans-serif' font-size="22" font-weight="300" fill="#5C4D43" text-anchor="start" >12s</text>
<circle cx="335" cy="988" r="6" fill="#29B86B"/>
<rect x="640" y="1042" width="430" height="120" rx="40" fill="#FFD9C9" opacity="0.6"/>
<circle cx="1008" cy="1102" r="30" fill="#FFD9C9"/><text x="1008" y="1111.6" font-family='-apple-system, "SF Pro Display", "Helvetica Neue", system-ui, sans-serif' font-size="36" font-weight="500" fill="#FB6E5C" text-anchor="middle" >Y</text>
<rect x="722" y="1100" width="240" height="3" rx="2" fill="#FFD9C9"/>
<rect x="722" y="1100" width="160" height="3" rx="2" fill="#FB6E5C"/>
<text x="962" y="1134" font-family='-apple-system, "SF Pro Display", "Helvetica Neue", system-ui, sans-serif' font-size="22" font-weight="300" fill="#5C4D43" text-anchor="end" >8s</text>
<rect x="220" y="1184" width="430" height="120" rx="40" fill="#FFFFFF"/>
<circle cx="282" cy="1244" r="30" fill="#FFD9C9"/><text x="282" y="1253.6" font-family='-apple-system, "SF Pro Display", "Helvetica Neue", system-ui, sans-serif' font-size="36" font-weight="500" fill="#1A1714" text-anchor="middle" >M</text>
<rect x="328" y="1242" width="240" height="3" rx="2" fill="#FFD9C9"/>
<rect x="328" y="1242" width="80" height="3" rx="2" fill="#29B86B"/>
<text x="328" y="1276" font-family='-apple-system, "SF Pro Display", "Helvetica Neue", system-ui, sans-serif' font-size="22" font-weight="300" fill="#5C4D43" text-anchor="start" >5s</text>
<rect x="640" y="1326" width="430" height="120" rx="40" fill="#FFD9C9" opacity="0.6"/>
<circle cx="1008" cy="1386" r="30" fill="#FFD9C9"/><text x="1008" y="1395.6" font-family='-apple-system, "SF Pro Display", "Helvetica Neue", system-ui, sans-serif' font-size="36" font-weight="500" fill="#FB6E5C" text-anchor="middle" >Y</text>
<rect x="722" y="1384" width="240" height="3" rx="2" fill="#FFD9C9"/>
<rect x="722" y="1384" width="160" height="3" rx="2" fill="#FB6E5C"/>
<text x="962" y="1418" font-family='-apple-system, "SF Pro Display", "Helvetica Neue", system-ui, sans-serif' font-size="22" font-weight="300" fill="#5C4D43" text-anchor="end" >20s</text>
<rect x="220" y="1468" width="430" height="120" rx="40" fill="#FFFFFF"/>
<circle cx="282" cy="1528" r="30" fill="#FFD9C9"/><text x="282" y="1537.6" font-family='-apple-system, "SF Pro Display", "Helvetica Neue", system-ui, sans-serif' font-size="36" font-weight="500" fill="#1A1714" text-anchor="middle" >M</text>
<rect x="328" y="1526" width="240" height="3" rx="2" fill="#FFD9C9"/>
<rect x="328" y="1526" width="80" height="3" rx="2" fill="#29B86B"/>
<text x="328" y="1560" font-family='-apple-system, "SF Pro Display", "Helvetica Neue", system-ui, sans-serif' font-size="22" font-weight="300" fill="#5C4D43" text-anchor="start" >9s</text>
<circle cx="335" cy="1556" r="6" fill="#29B86B"/>
<circle cx="645.0" cy="2360" r="62" fill="#29B86B"/>
<circle cx="645.0" cy="2360" r="92" fill="#29B86B" opacity="0.18"/>
<text x="645.0" y="2375" font-family='-apple-system, "SF Pro Display", "Helvetica Neue", system-ui, sans-serif' font-size="44" font-weight="400" fill="#1A1714" text-anchor="middle" >🎙</text></g>
    
</svg>